# xmcd
#
# Track frame offsets: 
#        150
#        18262
#        34874
#        51256
#        71694
#        94783
#        111024
#        125641
#        143516
#        160416
#        184911
#        201395
#        218024
#        236156
#        250673
#        268399
#        284227
#
# Disc length: 4025 seconds
#
# Revision: 1
# Processed by: cddbd v1.4PL0 Copyright (c) Steve Scherf et al.
# Submitted via: ExactAudioCopy v0.90b4
#
DISCID=0b0fb711
DTITLE=Sarah Connor - Green Eyed Soul
DYEAR=1900
DGENRE=
TTITLE0=Let´s Get Back To Bed -  Boy!
TTITLE1=If U Were My Man
TTITLE2=French Kissing
TTITLE3=Magic Ride (Whatever U Wish 4)
TTITLE4=From Sarah With Love
TTITLE5=Make U High
TTITLE6=In My House
TTITLE7=Where Do We Go From Here
TTITLE8=I Can´t Lie
TTITLE9=Imagining
TTITLE10=Every Little Thing
TTITLE11=Undressed
TTITLE12=Can´t Get None
TTITLE13=Man Of My Dreams
TTITLE14=Let Us Come 2gether
TTITLE15=When I Dream
TTITLE16=Let´s Get Back To Bed - Boy! (Remix)
EXTD=
EXTT0=
EXTT1=
EXTT2=
EXTT3=
EXTT4=
EXTT5=
EXTT6=
EXTT7=
EXTT8=
EXTT9=
EXTT10=
EXTT11=
EXTT12=
EXTT13=
EXTT14=
EXTT15=
EXTT16=
PLAYORDER=
